<svg width="24" height="24" viewBox="0 0 24 24" fill="none" xmlns="http://www.w3.org/2000/svg">
<path fill-rule="evenodd" clip-rule="evenodd" d="M5.742 0H14.4L21.6 7.2V20.876C21.6 22.603 20.105 24 18.264 24H5.742C3.895 24 2.4 22.603 2.4 20.876V3.124C2.4 1.397 3.895 0 5.742 0Z" fill="#D24726"/>
<path d="M14.415 4.896V0L21.6 7.2H16.81C14.655 7.2 14.315 5.664 14.415 4.896Z" fill="white" fill-opacity=".3"/>
<path d="M4.9 19.2V15.2H6.55C7.5 15.2 8.1 15.74 8.1 16.58C8.1 17.43 7.48 17.95 6.52 17.95H5.75V19.2H4.9ZM5.75 17.25H6.42C6.95 17.25 7.24 17.02 7.24 16.58C7.24 16.15 6.95 15.92 6.42 15.92H5.75V17.25ZM8.35 15.2H11.65V15.92H10.42V19.2H9.58V15.92H8.35V15.2ZM11.85 15.2H15.15V15.92H13.92V19.2H13.08V15.92H11.85V15.2ZM15.35 15.2H16.35L17.15 16.55L17.95 15.2H18.95L17.7 17.15L19 19.2H18L17.15 17.8L16.3 19.2H15.3L16.6 17.15L15.35 15.2Z" fill="white"/>
</svg>
