<svg width="24" height="24" viewBox="0 0 24 24" fill="none" xmlns="http://www.w3.org/2000/svg">
<path fill-rule="evenodd" clip-rule="evenodd" d="M5.742 0H14.4L21.6 7.2V20.876C21.6 22.603 20.105 24 18.264 24H5.742C3.895 24 2.4 22.603 2.4 20.876V3.124C2.4 1.397 3.895 0 5.742 0Z" fill="#16834A"/>
<path d="M14.415 4.896V0L21.6 7.2H16.81C14.655 7.2 14.315 5.664 14.415 4.896Z" fill="white" fill-opacity=".3"/>
<path d="M5.1 15.2H6.1L6.9 16.55L7.7 15.2H8.7L7.45 17.15L8.75 19.2H7.75L6.9 17.8L6.05 19.2H5.05L6.35 17.15L5.1 15.2ZM9.2 15.2H10.05V18.5H11.85V19.2H9.2V15.2ZM12.2 18.05H13.05C13.1 18.43 13.38 18.62 13.88 18.62C14.3 18.62 14.55 18.48 14.55 18.22C14.55 17.93 14.27 17.82 13.62 17.67C12.7 17.46 12.3 17.1 12.3 16.42C12.3 15.64 12.93 15.12 13.85 15.12C14.8 15.12 15.4 15.62 15.45 16.4H14.62C14.57 16.02 14.3 15.84 13.85 15.84C13.43 15.84 13.16 16.02 13.16 16.3C13.16 16.56 13.4 16.66 14.05 16.82C14.98 17.04 15.42 17.4 15.42 18.08C15.42 18.89 14.8 19.28 13.84 19.28C12.83 19.28 12.25 18.82 12.2 18.05ZM15.8 15.2H16.8L17.6 16.55L18.4 15.2H19.4L18.15 17.15L19.45 19.2H18.45L17.6 17.8L16.75 19.2H15.75L17.05 17.15L15.8 15.2Z" fill="white"/>
</svg>
